<?xml version="1.0" encoding="utf-8"?>
<!-- Generator: Adobe Illustrator 19.0.0, SVG Export Plug-In . SVG Version: 6.00 Build 0)  -->
<svg version="1.1" id="Layer_1" xmlns="http://www.w3.org/2000/svg" xmlns:xlink="http://www.w3.org/1999/xlink" x="0px" y="0px"
	 viewBox="0 0 50 50" style="enable-background:new 0 0 50 50;" xml:space="preserve">
<style type="text/css">
	.st0{fill:#FFFFFF;}
</style>
<g id="XMLID_1_">
	<path id="XMLID_80_" class="st0" d="M42.1,17.9v-10h-10L25,0.8l-7.1,7.1h-10v10L0.8,25l7.1,7.1v10h10l7.1,7.1l7.1-7.1h10v-10
		l7.1-7.1L42.1,17.9z M39.1,39.1h-4l4-4V39.1z M39.1,30.8l-8.3,8.3l-1.5,1.5l-1.5,1.5L25,45l-2.8-2.8l-1.5-1.5l-1.5-1.5l-8.3-8.3
		l-1.5-1.5l-1.5-1.5L5,25l2.8-2.8l1.5-1.5l1.5-1.5l8.3-8.3l1.5-1.5l1.5-1.5L25,5l2.8,2.8l1.5,1.5l1.5,1.5l8.3,8.3l1.5,1.5l1.5,1.5
		L45,25l-2.8,2.8l-1.5,1.5L39.1,30.8z M10.9,39.1v-4l4,4H10.9z M10.9,10.9h4l-4,4V10.9z M39.1,10.9v4l-4-4H39.1z"/>
	<path id="XMLID_87_" class="st0" d="M25,12.4c-7,0-12.6,5.7-12.6,12.6S18,37.6,25,37.6S37.6,32,37.6,25S32,12.4,25,12.4z M25,34.6
		c-5.3,0-9.6-4.3-9.6-9.6c0-5.3,4.3-9.6,9.6-9.6c5.3,0,9.6,4.3,9.6,9.6C34.6,30.3,30.3,34.6,25,34.6z"/>
	<path id="XMLID_90_" class="st0" d="M25,18.2c-3.8,0-6.8,3.1-6.8,6.8c0,3.8,3.1,6.8,6.8,6.8c3.8,0,6.8-3.1,6.8-6.8
		C31.8,21.2,28.8,18.2,25,18.2z M25,28.8c-2.1,0-3.8-1.7-3.8-3.8c0-2.1,1.7-3.8,3.8-3.8c2.1,0,3.8,1.7,3.8,3.8
		C28.8,27.1,27.1,28.8,25,28.8z"/>
	<circle id="XMLID_91_" class="st0" cx="25" cy="25" r="1.8"/>
</g>
</svg>
